<svg width="20" height="24" viewBox="0 0 20 24" fill="none" xmlns="http://www.w3.org/2000/svg">
<path d="M14.773 0.0120105C14.722 -0.0449895 12.8845 0.0345106 11.2855 1.77001C9.6865 3.50401 9.9325 5.49301 9.9685 5.54401C10.0045 5.59501 12.2485 5.67451 13.681 3.65701C15.1135 1.63951 14.824 0.0705105 14.773 0.0120105ZM19.744 17.6115C19.672 17.4675 16.2565 15.7605 16.5745 12.4785C16.8925 9.19501 19.087 8.29501 19.1215 8.19751C19.156 8.10001 18.226 7.01251 17.2405 6.46201C16.5169 6.07389 15.7161 5.85152 14.896 5.81101C14.734 5.80651 14.1715 5.66851 13.015 5.98501C12.253 6.19351 10.5355 6.86851 10.063 6.89551C9.589 6.92251 8.179 6.11251 6.6625 5.89801C5.692 5.71051 4.663 6.09451 3.9265 6.39001C3.1915 6.68401 1.7935 7.52101 0.815496 9.74551C-0.162504 11.9685 0.348996 15.4905 0.714996 16.5855C1.081 17.679 1.6525 19.4715 2.6245 20.7795C3.4885 22.2555 4.6345 23.28 5.113 23.628C5.5915 23.976 6.9415 24.207 7.8775 23.7285C8.6305 23.2665 9.9895 23.001 10.5265 23.0205C11.062 23.04 12.118 23.2515 13.1995 23.829C14.056 24.1245 14.866 24.0015 15.6775 23.6715C16.489 23.34 17.6635 22.083 19.0345 19.5345C19.555 18.3495 19.792 17.709 19.744 17.6115Z" fill="white"/>
</svg>
