<svg width="31" height="36" viewBox="0 0 31 36" fill="none" xmlns="http://www.w3.org/2000/svg">
<path fill-rule="evenodd" clip-rule="evenodd" d="M25.9728 2.74151C22.0455 -0.0757604 17.8635 -0.0161961 14.1087 1.69865C10.4339 3.37696 7.15785 6.62728 4.66677 10.2713C2.17408 13.9176 0.318977 18.174 0.0369889 22.265C-0.250053 26.4293 1.10734 30.4474 5.02754 33.2589C8.95567 36.0761 13.1377 36.0161 16.8923 34.3007C20.5669 32.6219 23.8424 29.3712 26.3334 25.7273C28.8261 22.0809 30.6808 17.8249 30.9626 13.7344C31.2494 9.57054 29.892 5.55297 25.9728 2.74151ZM7.14339 11.9643C9.4515 8.58796 12.346 5.80175 15.355 4.42752C18.284 3.08982 21.299 3.08082 24.2241 5.17916C27.1573 7.28331 28.1978 10.2158 27.9697 13.5282C27.7365 16.9139 26.1633 20.6603 23.8568 24.0343C21.5486 27.4108 18.6545 30.1974 15.6457 31.572C12.7169 32.9101 9.70187 32.9195 6.77593 30.821C3.84206 28.7169 2.80154 25.7841 3.02989 22.4713C3.26329 19.0852 4.83689 15.3383 7.14339 11.9643ZM14.1296 17.017C14.2668 10.8382 20.8481 7.1892 23.1791 6.76757C21.5325 7.67939 17.0094 12.8041 16.8706 18.9812C16.7333 25.16 10.8381 29.3026 7.82105 29.2306C9.46596 28.3188 13.9907 23.1941 14.1296 17.017Z" fill="#FEEDCB"/>
</svg>
