<svg width="303" height="269" viewBox="0 0 303 269" fill="none" xmlns="http://www.w3.org/2000/svg">
<path d="M274.869 229.747C271.977 227.683 267.524 227.265 264.378 225.613C258.177 222.356 258.546 221.127 253.427 216.344C250.045 213.19 241.333 209.516 238.895 202.529C236.366 195.283 235.513 185.809 230.624 179.888L231.223 179.301C231.223 179.301 253.833 188.339 258.025 191.584C262.218 194.829 267.125 200.756 268.014 206.785C268.91 212.815 266.653 215.164 269.049 219.577C271.445 223.99 272.691 225.564 273.859 227.362C275.026 229.16 274.869 229.747 274.869 229.747Z" fill="#AAAAAA"/>
<path d="M230.854 179.664C241.054 184.296 248.895 193.17 254.165 202.911C255.43 205.393 256.706 207.845 258.158 210.218C262.46 217.349 267.941 223.76 274.597 228.815C272.31 227.229 270.156 225.455 268.123 223.548C262.024 217.791 257.354 210.66 253.639 203.195C248.448 193.497 240.77 184.689 230.854 179.67V179.664Z" fill="#EEEEEE"/>
<path d="M252.659 201.04C256.688 204.981 262.902 205.278 266.986 209.152C267.555 209.715 268.075 210.327 268.468 211.017C264.366 205.992 256.652 206.186 252.659 201.04Z" fill="#EEEEEE"/>
<path d="M243.844 189.441C246.917 192.631 248.097 197.268 246.373 201.415C245.187 204.46 246.336 207.614 247.867 210.314C248.363 211.253 248.914 212.155 249.446 213.081C248.176 211.38 246.948 209.618 246.094 207.632C245.665 206.646 245.368 205.574 245.296 204.472C245.126 202.275 246.324 200.301 246.585 198.213C246.954 195.077 245.707 191.959 243.838 189.447L243.844 189.441Z" fill="#EEEEEE"/>
<path d="M240.806 186.323C243.753 187.261 249.658 189.174 252.592 190.137C256.494 191.511 260.264 193.588 263.113 196.621C256.791 191.076 248.212 189.834 240.806 186.323Z" fill="#EEEEEE"/>
<path d="M124.099 0C123.893 2.94819 121.8 6.04168 121.195 8.93539C120.003 14.6441 120.989 15.0618 121.346 20.8856C121.582 24.7297 119.325 32.2788 122.52 37.5395C125.835 43.0061 131.462 48.5695 132.672 54.8473L133.368 54.7747C133.368 54.7747 139.539 35.451 139.678 31.0378C139.817 26.6245 138.607 20.3347 135.207 16.5632C131.807 12.7977 129.108 13.0035 127.541 9.12305C125.981 5.24258 125.624 3.61411 125.091 1.913C124.553 0.211882 124.093 0 124.093 0H124.099Z" fill="#EEEEEE"/>
<path d="M132.944 54.8171C134.935 45.7849 133.338 36.2017 129.853 27.7325C127.039 21.3821 124.928 14.5958 124.48 7.62182C124.341 5.30322 124.347 2.97251 124.553 0.666016C124.305 7.62182 125.533 14.5292 127.832 21.0673C128.582 23.2527 129.49 25.3655 130.403 27.5024C133.864 36.0564 135.413 45.8151 132.938 54.8171H132.944Z" fill="#EEEEEE"/>
<path d="M130.766 29.4756C129.653 24.8384 132.775 20.5463 132.872 15.9757C132.902 15.3279 132.841 14.6741 132.733 14.0263C132.975 14.6438 133.096 15.3037 133.168 15.9635C133.531 20.6492 130.434 24.79 130.766 29.4695V29.4756Z" fill="#EEEEEE"/>
<path d="M133.549 41.2927C132.896 38.7683 131.553 36.3407 129.351 34.9241C127.874 33.9918 125.962 33.7133 124.643 32.436C123.972 31.8003 123.44 31.0376 123.034 30.2324C122.211 28.6221 121.739 26.8968 121.34 25.1714C121.661 25.9948 121.957 26.8302 122.302 27.6414C123.24 30.0387 124.643 32.4299 127.221 33.2775C130.772 34.3369 133.192 37.6483 133.549 41.2927Z" fill="#EEEEEE"/>
<path d="M133.936 44.8886C135.539 38.2476 139.278 32.0909 139.139 25.0927C139.932 30.3292 137.851 35.372 135.878 40.1061C135.406 41.2987 134.426 43.702 133.936 44.8886Z" fill="#EEEEEE"/>
<path d="M31.9 47.6548C35.9415 49.8644 38.9485 54.8286 42.6451 57.5649C49.9417 62.9648 51.1698 61.8388 59.634 65.1139C65.2244 67.2751 74.4267 75.3751 83.9436 74.2733C93.8236 73.1291 105.349 68.7765 115.011 71.1435L115.356 70.1083C115.356 70.1083 92.0509 48.8171 85.8978 45.7539C79.7448 42.6907 70.0645 40.3176 62.5321 42.6786C54.9996 45.0396 53.5355 48.9988 47.0376 48.6961C40.5397 48.3873 37.9986 47.8304 35.2458 47.4793C32.4929 47.1281 31.894 47.6488 31.894 47.6488L31.9 47.6548Z" fill="#AAAAAA"/>
<path d="M115.151 70.7443C103.728 61.9421 89.1107 57.9344 74.8626 57.3472C67.6568 57.2443 60.4087 56.645 53.3481 55.0589C46.3057 53.4849 39.4509 50.9605 33.1466 47.4432C42.7724 52.4073 53.3602 55.2042 64.0993 56.2091C67.681 56.5663 71.2627 56.6753 74.8747 56.7479C89.1954 57.3896 103.952 61.5183 115.145 70.7443H115.151Z" fill="#EEEEEE"/>
<path d="M77.9118 57.3655C69.7138 55.5009 65.5755 46.3778 57.3533 44.5496C58.3758 44.6404 59.3801 44.9128 60.3481 45.27C67.1304 47.9034 70.9964 54.9984 77.9178 57.3655H77.9118Z" fill="#EEEEEE"/>
<path d="M96.4131 61.1068C92.426 60.2895 88.0699 60.5862 84.5911 62.7717C83.4597 63.4922 82.5098 64.473 81.4994 65.4235C79.5331 67.4335 76.744 68.6201 73.9306 68.6807C71.1415 68.826 68.3947 68.4082 65.6903 67.9178C67.0637 68.0329 68.431 68.1782 69.8044 68.2448C73.8278 68.5354 78.2081 68.1237 81.088 64.9876C82.0923 64.0673 83.0846 63.0623 84.2946 62.3177C87.8823 60.1018 92.4563 59.9323 96.4131 61.1129V61.1068Z" fill="#EEEEEE"/>
<path d="M101.762 62.8923C97.6898 59.4114 93.9266 55.5794 90.1694 51.7776C86.4304 48.0061 82.0562 44.7734 77.1616 42.6727C82.2861 44.3435 86.7874 47.5944 90.599 51.3538L101.762 62.8984V62.8923Z" fill="#EEEEEE"/>
<path d="M266.726 174.659C266.641 174.719 258.292 180.731 250.263 172.715C241.382 163.847 248.666 156.576 248.666 156.576L266.726 174.653V174.659Z" fill="#EEEEEE"/>
<path d="M268.214 172.878C268.214 172.878 266.514 177.994 257.917 173.732C249.32 169.47 246.718 163.101 247.462 159.324C248.206 155.546 250.1 156.049 250.1 156.049C250.1 156.049 250.221 154.977 252.859 154.487C255.497 153.996 261.456 154.632 266.617 160.789C271.185 166.237 271.209 171.444 268.22 172.89L268.214 172.878Z" fill="#EEEEEE"/>
<path d="M268.293 172.861C264.638 171.971 261.45 169.434 260.173 165.911C259.804 164.894 259.556 163.822 259.145 162.799C258.721 161.74 258.05 160.747 257.233 159.948C256.434 159.155 255.466 158.507 254.468 158.005C252.998 157.254 251.491 156.594 249.949 156.019C251.34 156.891 252.762 157.702 254.141 158.586C255.478 159.397 256.713 160.475 257.542 161.794C258.697 163.586 258.836 165.965 259.998 167.8C261.71 170.681 264.977 172.709 268.299 172.861H268.293Z" fill="#EEEEEE"/>
<g opacity="0.3">
<path d="M250.118 158.845C250.299 158.512 250.802 158.434 251.237 158.634C252.665 159.293 254.165 160.341 255.085 161.418C255.345 161.727 255.593 162.054 255.599 162.417C255.599 162.551 255.563 162.678 255.478 162.781C255.2 163.114 254.643 163.017 254.171 162.884C253.24 162.623 252.314 162.248 251.552 161.697C250.783 161.14 250.184 160.383 250.045 159.608C249.997 159.342 250.003 159.076 250.124 158.852L250.118 158.845Z" fill="white"/>
</g>
<path opacity="0.3" d="M251.812 155.777C255.763 154.59 260.397 156.037 263.09 159.131C259.78 156.709 255.92 155.48 251.812 155.777Z" fill="white"/>
<path opacity="0.3" d="M264.281 160.341C265.026 160.535 265.491 161.031 265.631 161.788C264.88 161.594 264.421 161.098 264.281 160.341Z" fill="white"/>
<path opacity="0.3" d="M257.941 165.287C258.8 168.368 260.694 170.887 263.417 172.558C260.307 171.723 257.887 168.508 257.941 165.287Z" fill="white"/>
<path d="M56.1429 192.462C56.1974 192.559 61.1343 201.579 52.2103 208.571C42.3243 216.314 36.0079 208.19 36.0079 208.19L56.1429 192.462Z" fill="#EEEEEE"/>
<path d="M54.5639 190.767C54.5639 190.767 59.4282 193.079 54.1524 201.101C48.8767 209.116 42.2397 210.926 38.5793 209.727C34.9189 208.523 35.651 206.706 35.651 206.706C35.651 206.706 34.5983 206.458 34.4349 203.776C34.2716 201.095 35.6268 195.259 42.3667 190.882C48.3322 187.007 53.493 187.625 54.5639 190.767Z" fill="#EEEEEE"/>
<path d="M54.5581 190.688C53.227 194.205 50.323 197.063 46.6747 197.904C45.622 198.146 44.5269 198.261 43.4621 198.546C42.3549 198.836 41.2961 199.381 40.4007 200.102C39.5174 200.798 38.755 201.682 38.1379 202.608C37.2183 203.976 36.3773 205.393 35.615 206.858C36.6496 205.58 37.6236 204.273 38.6703 203.007C39.6384 201.779 40.8605 200.683 42.2641 200.023C44.182 199.091 46.5598 199.248 48.5261 198.316C51.5935 196.966 54.0015 193.969 54.5641 190.688H54.5581Z" fill="#EEEEEE"/>
<g opacity="0.3">
<path d="M38.4341 207.028H38.428C38.1316 206.804 38.1074 206.295 38.3615 205.89C39.1904 204.552 40.4125 203.189 41.5923 202.408C41.9311 202.184 42.288 201.985 42.645 202.021C42.7781 202.033 42.8991 202.087 42.9899 202.184C43.2863 202.505 43.123 203.044 42.9354 203.498C42.5603 204.394 42.0823 205.266 41.435 205.956C40.7876 206.652 39.9648 207.155 39.1783 207.197C38.912 207.215 38.6458 207.173 38.4341 207.028Z" fill="white"/>
</g>
<path opacity="0.3" d="M35.5968 204.964C34.9011 200.895 36.9037 196.469 40.3039 194.169C37.4966 197.16 35.8086 200.847 35.5968 204.964Z" fill="white"/>
<path opacity="0.3" d="M41.6469 193.14C41.9312 192.426 42.4757 192.02 43.2501 191.978C42.9718 192.698 42.4152 193.092 41.6469 193.14Z" fill="white"/>
<path opacity="0.3" d="M45.7792 200.042C48.9434 199.57 51.666 197.989 53.6626 195.489C52.4525 198.474 48.9676 200.484 45.7792 200.042Z" fill="white"/>
<path d="M62.3447 87.6532C62.3265 87.7137 60.5054 93.2291 54.183 92.2362C47.1829 91.1404 48.0965 85.401 48.0965 85.401L62.3447 87.6532Z" fill="#EEEEEE"/>
<path d="M62.435 86.3454C62.435 86.3454 63.3546 89.2453 58.0123 90.1595C52.67 91.0737 49.3666 89.0274 48.4531 87.0537C47.5395 85.08 48.568 84.6804 48.568 84.6804C48.568 84.6804 48.2655 84.1477 49.3061 83.0518C50.3468 81.95 53.2811 80.2608 57.6796 81.3567C61.5759 82.3253 63.3123 84.6986 62.429 86.3514L62.435 86.3454Z" fill="#EEEEEE"/>
<path d="M62.4657 86.3083C60.4994 87.1135 58.2064 87.0167 56.4518 85.8361C55.9436 85.491 55.4778 85.0854 54.9453 84.7584C54.4008 84.4134 53.7656 84.1833 53.1242 84.0925C52.495 83.9956 51.8355 84.0198 51.2184 84.1227C50.2988 84.2681 49.3913 84.4678 48.4958 84.7161C49.4215 84.6495 50.3351 84.5526 51.2608 84.4921C52.1381 84.4194 53.0637 84.4981 53.8745 84.825C54.9998 85.261 55.8529 86.2962 56.9903 86.7503C58.7327 87.495 60.8927 87.3375 62.4657 86.3023V86.3083Z" fill="#EEEEEE"/>
<g opacity="0.3">
<path d="M49.5119 85.9516C49.4877 85.7397 49.6874 85.5338 49.9536 85.4793C50.8248 85.3098 51.8594 85.2856 52.6338 85.4733C52.8577 85.5278 53.0755 85.5944 53.2025 85.7578C53.2449 85.8184 53.2751 85.891 53.2691 85.9637C53.2509 86.2059 52.9666 86.3512 52.7064 86.448C52.1922 86.6357 51.6476 86.775 51.1152 86.775C50.5828 86.775 50.0565 86.6297 49.7297 86.3209C49.6208 86.218 49.5361 86.0908 49.5119 85.9455V85.9516Z" fill="white"/>
</g>
<path opacity="0.3" d="M49.2703 83.9843C50.5408 81.9924 53.2997 81.054 55.5322 81.7684C53.1968 81.9622 51.1882 82.6221 49.2703 83.9843Z" fill="white"/>
<path opacity="0.3" d="M56.476 81.9255C56.8995 81.5864 57.3049 81.6652 57.5711 82.1374C57.1476 82.4764 56.7422 82.3917 56.476 81.9255Z" fill="white"/>
<path opacity="0.3" d="M55.2236 86.2903C56.7785 87.2711 58.3031 87.7312 60.1363 87.7918C58.4786 88.6394 56.125 87.9189 55.2236 86.2903Z" fill="white"/>
<path d="M264.015 133.305C264.033 133.365 265.594 138.959 259.792 141.659C253.367 144.65 250.928 139.377 250.928 139.377L264.015 133.305Z" fill="#EEEEEE"/>
<path d="M263.368 132.166C263.368 132.166 265.745 134.061 261.819 137.796C257.892 141.532 254.008 141.677 252.151 140.551C250.293 139.419 250.929 138.517 250.929 138.517C250.929 138.517 250.384 138.244 250.632 136.749C250.88 135.254 252.381 132.214 256.64 130.671C260.415 129.302 263.18 130.301 263.362 132.166H263.368Z" fill="#EEEEEE"/>
<path d="M263.374 132.124C262.194 133.886 260.228 135.09 258.116 135.084C257.505 135.084 256.888 135.006 256.265 135.03C255.617 135.048 254.964 135.211 254.383 135.49C253.808 135.756 253.276 136.15 252.816 136.58C252.132 137.215 251.491 137.887 250.886 138.596C251.618 138.027 252.32 137.433 253.058 136.87C253.748 136.319 254.559 135.871 255.418 135.69C256.591 135.423 257.88 135.811 259.078 135.55C260.942 135.199 262.648 133.861 263.374 132.124Z" fill="#EEEEEE"/>
<g opacity="0.3">
<path d="M252.417 139.049C252.278 138.886 252.332 138.601 252.526 138.414C253.155 137.784 254.002 137.191 254.746 136.912C254.958 136.834 255.182 136.767 255.375 136.834C255.448 136.858 255.509 136.906 255.545 136.967C255.666 137.179 255.509 137.457 255.345 137.681C255.025 138.123 254.649 138.541 254.208 138.844C253.766 139.14 253.246 139.316 252.804 139.237C252.653 139.213 252.514 139.158 252.417 139.049Z" fill="white"/>
</g>
<path opacity="0.3" d="M251.116 137.555C251.061 135.194 252.828 132.875 255.085 132.221C253.251 133.686 251.951 135.357 251.116 137.555Z" fill="white"/>
<path opacity="0.3" d="M255.956 131.821C256.119 131.307 256.501 131.143 256.985 131.385C256.821 131.9 256.44 132.064 255.956 131.821Z" fill="white"/>
<path opacity="0.3" d="M257.348 136.143C259.187 136.089 260.705 135.622 262.266 134.648C261.365 136.276 259.005 136.991 257.348 136.143Z" fill="white"/>
<path d="M229.523 203.819C229.559 203.867 232.905 208.62 228.337 213.106C223.279 218.077 219.219 213.923 219.219 213.923L229.523 203.819Z" fill="#EEEEEE"/>
<path d="M228.525 202.972C228.525 202.972 231.399 203.964 228.948 208.795C226.498 213.626 222.886 215.067 220.756 214.625C218.627 214.183 218.923 213.118 218.923 213.118C218.923 213.118 218.318 213.045 218.058 211.55C217.798 210.054 218.185 206.695 221.688 203.813C224.786 201.258 227.726 201.276 228.525 202.978V202.972Z" fill="#EEEEEE"/>
<path d="M228.519 202.923C227.992 204.981 226.547 206.767 224.556 207.476C223.981 207.681 223.376 207.809 222.795 208.039C222.196 208.275 221.634 208.644 221.174 209.104C220.72 209.552 220.351 210.097 220.061 210.654C219.631 211.484 219.25 212.331 218.911 213.197C219.413 212.416 219.873 211.617 220.381 210.842C220.847 210.091 221.464 209.401 222.209 208.941C223.225 208.299 224.568 208.232 225.615 207.585C227.248 206.634 228.41 204.8 228.519 202.923Z" fill="#EEEEEE"/>
<g opacity="0.3">
<path d="M220.508 213.118C220.327 213.009 220.284 212.724 220.399 212.482C220.78 211.677 221.379 210.835 221.99 210.327C222.166 210.181 222.353 210.042 222.559 210.042C222.632 210.042 222.704 210.066 222.765 210.115C222.952 210.272 222.892 210.587 222.813 210.853C222.662 211.38 222.444 211.901 222.13 212.331C221.809 212.76 221.379 213.093 220.944 213.172C220.792 213.196 220.641 213.19 220.514 213.124L220.508 213.118Z" fill="white"/>
</g>
<path opacity="0.3" d="M218.784 212.144C217.943 209.94 218.832 207.161 220.738 205.787C219.498 207.779 218.832 209.789 218.784 212.144Z" fill="white"/>
<path opacity="0.3" d="M221.428 205.12C221.41 204.582 221.718 204.298 222.249 204.364C222.268 204.902 221.959 205.187 221.428 205.12Z" fill="white"/>
<path opacity="0.3" d="M224.187 208.729C225.905 208.063 227.181 207.118 228.319 205.671C228.016 207.512 226.026 208.971 224.187 208.729Z" fill="white"/>
<path d="M268.825 186.457H159.468C157.514 186.457 155.922 184.865 155.922 182.909V23.5254C155.922 21.5701 157.514 19.9779 159.468 19.9779H268.825C270.779 19.9779 272.37 21.5701 272.37 23.5254V182.909C272.37 184.865 270.779 186.457 268.825 186.457ZM159.468 20.1292C157.598 20.1292 156.074 21.6548 156.074 23.5254V182.909C156.074 184.78 157.598 186.306 159.468 186.306H268.825C270.694 186.306 272.219 184.78 272.219 182.909V23.5254C272.219 21.6548 270.694 20.1292 268.825 20.1292H159.468Z" fill="#EEEEEE"/>
<path d="M142.721 186.457H33.3701C31.4159 186.457 29.8247 184.865 29.8247 182.909V23.5253C29.8247 21.5699 31.4159 19.9778 33.3701 19.9778H142.721C144.675 19.9778 146.266 21.5699 146.266 23.5253V182.909C146.266 184.865 144.675 186.457 142.721 186.457ZM33.3701 20.1291C31.5006 20.1291 29.976 21.6547 29.976 23.5253V182.909C29.976 184.78 31.5006 186.306 33.3701 186.306H142.721C144.59 186.306 146.115 184.78 146.115 182.909V23.5253C146.115 21.6547 144.59 20.1291 142.721 20.1291H33.3701Z" fill="#EEEEEE"/>
<path d="M302.754 223.427H0.245605V223.579H302.754V223.427Z" fill="#EEEEEE"/>
<path d="M41.2234 232.06H31.5068V232.212H41.2234V232.06Z" fill="#EEEEEE"/>
<path d="M135.697 230.419H103.31V230.571H135.697V230.419Z" fill="#EEEEEE"/>
<path d="M63.7601 237.684H41.8282V237.836H63.7601V237.684Z" fill="#EEEEEE"/>
<path d="M255.284 230.341H229.154V230.492H255.284V230.341Z" fill="#EEEEEE"/>
<path d="M264.505 230.341H260.675V230.492H264.505V230.341Z" fill="#EEEEEE"/>
<path d="M224.163 234.112H191.558V234.264H224.163V234.112Z" fill="#EEEEEE"/>
<path d="M277.876 265.29C277.876 267.342 221.295 269.001 151.5 269.001C81.7055 269.001 25.1243 267.336 25.1243 265.29C25.1243 263.243 81.7055 261.578 151.5 261.578C221.295 261.578 277.876 263.243 277.876 265.29Z" fill="#EFEFEF"/>
<path d="M165.802 71.1624L138.794 198.201C138.794 198.201 152.891 220.509 185.03 223.681C185.03 223.681 193.651 225.407 203.64 221.06L259.514 101.958L165.796 71.1624H165.802Z" fill="#056780"/>
<path opacity="0.5" d="M165.802 71.1624L138.794 198.201C138.794 198.201 152.891 220.509 185.03 223.681C185.03 223.681 193.651 225.407 203.64 221.06L259.514 101.958L165.796 71.1624H165.802Z" fill="white"/>
<path opacity="0.5" d="M175.701 73.142C175.701 73.142 185.181 119.599 248.036 127.233L256.676 108.817C193.821 101.177 181.569 45.5549 181.569 45.5549" fill="white"/>
<path opacity="0.3" d="M165.421 72.9781C165.421 72.9781 184.854 98.4766 214.676 105.778C244.497 113.078 258.291 104.591 258.291 104.591L261.195 99.1365L165.427 72.972L165.421 72.9781Z" fill="black"/>
<path d="M266.024 98.1199L267.282 87.6529L262.599 80.4005L265.413 69.8487L220.907 55.9553L176.3 41.959L172.845 51.2273L164.828 54.4297L159.789 63.692C162.378 80.4913 208.257 94.7843 208.257 94.7843C213.72 96.6246 254.849 109.955 266.018 98.126L266.024 98.1199Z" fill="#444444"/>
<path opacity="0.3" d="M172.851 51.2273C172.851 51.2273 187.347 65.8957 220.702 75.2609C254.057 84.6261 262.605 80.3945 262.605 80.3945L265.28 70.3633L176.306 41.9408L172.851 51.2273Z" fill="black"/>
<path d="M265.28 70.3633C263.658 75.2305 242.222 73.7413 217.725 65.5627C193.228 57.384 174.684 46.808 176.306 41.9408C177.927 37.0736 199.103 39.7614 223.606 47.9401C248.109 56.1188 266.907 65.4961 265.28 70.3633Z" fill="#444444"/>
<path opacity="0.3" d="M208.262 94.7779C213.726 96.6183 254.855 109.949 266.023 98.1196L267.197 88.3306C260.451 90.964 246.439 93.1373 219.758 85.9031C173.002 73.2264 164.834 54.4294 164.834 54.4294L159.794 63.6917C162.384 80.491 208.262 94.784 208.262 94.784V94.7779Z" fill="black"/>
<path opacity="0.3" d="M207.911 55.0697C208.303 54.0135 204.765 51.7229 200.007 49.9534C195.249 48.1839 191.074 47.6057 190.682 48.6619C190.29 49.7181 193.828 52.0088 198.586 53.7783C203.344 55.5477 207.519 56.1259 207.911 55.0697Z" fill="black"/>
<path opacity="0.3" d="M222.487 53.9878C239.627 59.3454 253.639 65.2538 257.444 68.5289C257.765 68.3958 257.971 68.2202 258.037 68.0023C258.818 65.5142 242.718 58.2617 222.081 51.8144C201.444 45.3611 184.092 42.1526 183.312 44.6468C183.179 45.0705 183.536 45.6275 184.31 46.2934C187.607 44.9313 203.683 48.1156 222.487 53.9938V53.9878Z" fill="black"/>
<path d="M142.485 197.613C157.532 213.281 180.547 223.064 202.188 217.391L198.183 218.42L194.099 219.092C174.714 221.235 155.209 212.003 142.479 197.613H142.485Z" fill="black"/>
<path opacity="0.5" d="M150.483 143.238L144.99 169.07C154.356 184.477 172.784 202.626 210.495 207.209L219.504 188.006C180.032 183.212 160.412 160.728 150.477 143.232L150.483 143.238Z" fill="white"/>
<path opacity="0.5" d="M157.145 111.91C157.145 111.91 166.625 158.367 229.481 166.001L238.12 147.585C175.265 139.945 163.014 84.3232 163.014 84.3232" fill="white"/>
<path opacity="0.5" d="M172.694 78.693L140.918 201.028C144.73 206.198 149.8 210.466 155.91 213.989L190.983 88.2579C183.905 85.1826 177.721 82.0044 172.694 78.693Z" fill="white"/>
<path d="M50.0568 141.889L99.6984 261.899C99.6984 261.899 123.941 272.294 152.232 256.699C152.232 256.699 160.315 253.236 166.087 243.992L144.73 114.163L50.0568 141.889Z" fill="#0F699E"/>
<path opacity="0.3" d="M50.7644 143.602C50.7644 143.602 81.2149 153.609 109.923 142.724C138.631 131.845 145.202 117.032 145.202 117.032L144.506 110.893L50.7644 143.602Z" fill="black"/>
<path d="M147.918 107.316L143.03 97.9747L135.068 94.6451L131.413 84.3537L86.8721 98.1261L42.1855 111.868L44.5814 121.463L39.7836 128.643L40.8726 139.128C52.5131 151.508 98.4158 137.288 98.4158 137.288C103.964 135.708 145.401 123.389 147.912 107.31L147.918 107.316Z" fill="#444444"/>
<path opacity="0.3" d="M44.5814 121.463C44.5814 121.463 64.8314 125.338 97.6233 114.157C130.415 102.975 135.068 94.6452 135.068 94.6452L131.595 84.8623L42.1735 111.856L44.5814 121.463Z" fill="black"/>
<path d="M131.589 84.8622C133.004 89.796 114.497 100.711 89.6791 107.854C64.8552 114.998 43.5888 116.784 42.1731 111.856C40.7574 106.928 59.7307 97.1393 84.5485 89.9958C109.372 82.8523 130.173 79.9344 131.589 84.8622Z" fill="#444444"/>
<path opacity="0.3" d="M98.4159 137.294C103.964 135.714 145.402 123.395 147.912 107.316L143.338 98.5804C139.267 104.574 128.945 114.308 102.863 123.461C57.1537 139.51 39.7776 128.643 39.7776 128.643L40.8666 139.129C52.5072 151.509 98.4098 137.288 98.4098 137.288L98.4159 137.294Z" fill="black"/>
<path opacity="0.3" d="M75.6369 104.768C75.9091 105.857 72.1399 107.746 67.2211 108.987C62.2962 110.223 58.0853 110.344 57.8131 109.254C57.5408 108.164 61.3101 106.275 66.2289 105.034C71.1476 103.793 75.3646 103.678 75.6369 104.768Z" fill="black"/>
<path opacity="0.3" d="M87.0533 95.6073C104.218 90.3102 119.107 87.241 124.098 87.7858C124.286 87.4952 124.359 87.2349 124.286 87.0109C123.518 84.5168 106.148 87.6647 85.4923 94.0394C64.837 100.414 48.7133 107.606 49.4817 110.1C49.6087 110.524 50.2198 110.784 51.2362 110.893C53.1844 107.903 68.2372 101.419 87.0593 95.6073H87.0533Z" fill="black"/>
<path opacity="0.3" d="M63.1674 173.574C63.1674 173.574 107.074 181.674 150.054 146.538L156.685 186.832C156.685 186.832 124.317 222.616 77.9782 209.376L63.1674 173.574Z" fill="white"/>
<path d="M99.5227 196.482L99.8071 196.27C100.164 196.053 100.418 195.944 100.569 195.937C100.902 195.937 101.259 196.228 101.652 196.815C101.894 197.185 102.015 197.481 102.015 197.705C102.015 197.929 101.949 198.117 101.81 198.268C101.671 198.42 101.501 198.553 101.314 198.674C101.126 198.795 100.945 198.91 100.769 199.019C100.594 199.128 100.237 199.273 99.6982 199.449C99.1597 199.631 98.6333 199.721 98.1251 199.727C97.6169 199.733 97.1087 199.679 96.5884 199.552C96.0681 199.425 95.5357 199.213 94.979 198.904C94.4285 198.601 93.9263 198.22 93.4847 197.778C93.043 197.33 92.6739 196.755 92.3775 196.052C92.0871 195.35 91.9298 194.581 91.9177 193.746C91.9056 192.916 92.0326 192.16 92.2988 191.475C92.565 190.797 92.9099 190.228 93.3334 189.78C93.7569 189.332 94.247 188.951 94.7915 188.648C95.8261 188.055 96.8727 187.752 97.9255 187.734C98.4276 187.728 98.9359 187.794 99.4562 187.94C99.9765 188.085 100.37 188.236 100.636 188.394L101.023 188.612C101.217 188.727 101.368 188.818 101.477 188.89C101.755 189.108 101.9 189.363 101.906 189.641C101.906 189.926 101.804 190.222 101.586 190.537C101.18 191.118 100.811 191.415 100.479 191.421C100.285 191.421 100.013 191.312 99.6558 191.082C99.2021 190.725 98.6031 190.555 97.8589 190.567C97.1632 190.579 96.4855 190.828 95.8261 191.318C95.5115 191.56 95.2513 191.893 95.0456 192.323C94.8399 192.753 94.7431 193.237 94.7491 193.776C94.7552 194.315 94.8701 194.793 95.094 195.217C95.3118 195.641 95.5901 195.974 95.9229 196.21C96.5823 196.67 97.26 196.894 97.9618 196.882C98.2945 196.882 98.6031 196.827 98.8935 196.737C99.1839 196.646 99.3957 196.561 99.5227 196.47V196.482Z" fill="white"/>
<path d="M104.03 191.711C104.744 190.718 105.67 190.113 106.795 189.889C107.927 189.665 109.003 189.871 110.032 190.513C111.061 191.148 111.696 192.099 111.95 193.352C112.119 194.218 112.053 195.035 111.732 195.798C111.417 196.561 110.97 197.166 110.389 197.614C109.808 198.062 109.173 198.353 108.483 198.492C107.793 198.631 107.092 198.595 106.378 198.383C105.664 198.171 105.016 197.778 104.442 197.203C103.867 196.627 103.492 195.919 103.328 195.084C103.08 193.83 103.31 192.704 104.03 191.717V191.711ZM106.831 195.55C107.219 195.737 107.582 195.798 107.927 195.731C108.271 195.665 108.592 195.465 108.882 195.132C109.173 194.805 109.27 194.381 109.167 193.867C109.064 193.352 108.828 193.007 108.453 192.819C108.078 192.632 107.703 192.577 107.328 192.65C106.952 192.722 106.626 192.922 106.353 193.249C106.081 193.576 105.997 193.994 106.093 194.496C106.196 195.005 106.438 195.35 106.819 195.544L106.831 195.55Z" fill="white"/>
<path d="M121.854 185.336C122.544 185.076 123.016 185.112 123.282 185.451C123.415 185.621 123.536 185.857 123.651 186.166C123.766 186.475 123.826 186.735 123.832 186.941C123.832 187.153 123.784 187.322 123.675 187.455C123.512 187.655 123.227 187.831 122.828 187.976L121.848 188.279L123.354 192.292C123.5 192.674 123.554 192.97 123.53 193.194C123.506 193.418 123.409 193.594 123.233 193.727C123.064 193.86 122.822 193.987 122.513 194.102C122.205 194.217 121.945 194.278 121.739 194.284C121.527 194.284 121.358 194.235 121.225 194.12C121.092 194.005 120.995 193.89 120.934 193.775C120.874 193.66 120.801 193.491 120.717 193.261L119.228 189.296C118.762 189.507 118.375 189.671 118.06 189.786L116.572 190.276L118.079 194.29C118.224 194.671 118.278 194.968 118.254 195.186C118.23 195.41 118.127 195.585 117.958 195.719C117.788 195.852 117.546 195.979 117.238 196.094C116.929 196.209 116.669 196.27 116.463 196.276C116.251 196.276 116.082 196.227 115.949 196.112C115.816 195.997 115.719 195.882 115.659 195.767C115.598 195.652 115.525 195.483 115.441 195.253L113.952 191.287C113.771 191.39 113.577 191.481 113.353 191.566C113.136 191.651 112.918 191.632 112.712 191.517C112.506 191.402 112.325 191.142 112.168 190.73C112.016 190.319 111.926 190.016 111.907 189.81C111.889 189.61 111.907 189.447 111.968 189.338C112.077 189.15 112.252 189.011 112.494 188.92L113.009 188.793L112.712 188C112.422 187.231 112.434 186.432 112.748 185.603C113.063 184.773 113.741 184.162 114.775 183.775C115.005 183.69 115.181 183.629 115.302 183.605C115.423 183.575 115.568 183.569 115.743 183.581C116.064 183.617 116.348 183.956 116.584 184.598C116.766 185.076 116.808 185.451 116.711 185.712C116.633 185.936 116.451 186.105 116.155 186.226C116.07 186.269 115.931 186.329 115.743 186.402C115.374 186.541 115.235 186.735 115.332 186.983L115.64 187.806C116.167 187.564 116.621 187.37 117.008 187.225L118.284 186.814L117.988 186.02C117.697 185.252 117.71 184.453 118.024 183.623C118.339 182.794 119.016 182.182 120.051 181.795C120.293 181.704 120.468 181.644 120.583 181.619C120.698 181.595 120.844 181.589 121.019 181.601C121.34 181.638 121.624 181.977 121.86 182.618C122.042 183.096 122.084 183.472 121.987 183.732C121.908 183.956 121.733 184.126 121.443 184.241C121.346 184.289 121.207 184.35 121.013 184.422C120.644 184.562 120.505 184.755 120.602 185.003L120.91 185.827L121.848 185.373L121.854 185.336Z" fill="white"/>
<path d="M132.442 183.448C132.751 184.023 132.835 184.532 132.702 184.962C132.563 185.391 132.321 185.7 131.976 185.888L128.636 187.68C128.776 187.946 129.054 188.08 129.459 188.092C129.865 188.104 130.222 188.025 130.53 187.862C131.075 187.571 131.474 187.28 131.722 187.002L131.849 186.863C132.018 186.639 132.182 186.487 132.327 186.409C132.63 186.245 132.999 186.318 133.44 186.626C133.7 186.814 133.876 186.996 133.973 187.177C134.42 188.013 133.646 188.969 131.643 190.041C130.948 190.416 130.264 190.628 129.598 190.677C128.933 190.725 128.34 190.634 127.826 190.404C126.827 189.962 126.077 189.266 125.569 188.328C124.934 187.147 124.807 185.991 125.194 184.871C125.581 183.751 126.343 182.885 127.487 182.267C128.794 181.565 129.998 181.511 131.099 182.104C131.68 182.419 132.127 182.867 132.436 183.448H132.442ZM129.695 185.458C130.052 185.264 130.149 185.022 129.986 184.719C129.871 184.501 129.695 184.374 129.459 184.332C129.223 184.29 128.951 184.35 128.649 184.514C128.346 184.677 128.11 184.968 127.941 185.373C127.771 185.785 127.765 186.13 127.916 186.409L129.689 185.458H129.695Z" fill="white"/>
<path d="M139.98 177.624C140.392 178.133 140.567 178.617 140.513 179.065C140.458 179.513 140.277 179.865 139.968 180.113L137.016 182.492C137.203 182.722 137.5 182.807 137.899 182.746C138.298 182.686 138.637 182.541 138.909 182.323C139.393 181.935 139.726 181.578 139.92 181.263L140.017 181.106C140.144 180.851 140.271 180.676 140.404 180.567C140.67 180.355 141.045 180.355 141.541 180.573C141.832 180.712 142.037 180.857 142.164 181.015C142.757 181.753 142.17 182.837 140.404 184.26C139.793 184.756 139.157 185.089 138.51 185.265C137.863 185.441 137.264 185.459 136.719 185.325C135.654 185.071 134.789 184.532 134.118 183.703C133.277 182.656 132.938 181.548 133.113 180.373C133.289 179.199 133.876 178.206 134.886 177.388C136.042 176.456 137.215 176.184 138.407 176.559C139.036 176.765 139.557 177.122 139.968 177.631L139.98 177.624ZM137.651 180.113C137.965 179.859 138.014 179.598 137.802 179.332C137.651 179.144 137.451 179.047 137.215 179.047C136.973 179.047 136.719 179.156 136.453 179.374C136.181 179.592 136.005 179.919 135.914 180.349C135.824 180.785 135.884 181.124 136.084 181.372L137.651 180.107V180.113Z" fill="white"/>
<path d="M102.409 259.32C123.675 263.703 148.184 258.727 162.808 241.788L160.091 244.906L157.102 247.775C142.334 260.525 121.037 263.969 102.403 259.326L102.409 259.32Z" fill="black"/>
<path d="M146.751 54.5989C146.817 54.6957 153.376 63.7159 144.736 72.4575C135.171 82.1436 127.142 74.2797 127.142 74.2797L146.751 54.5928V54.5989Z" fill="#8A4F0A"/>
<path opacity="0.3" d="M146.751 54.5989C146.817 54.6957 153.376 63.7159 144.736 72.4575C135.171 82.1436 127.142 74.2797 127.142 74.2797L146.751 54.5928V54.5989Z" fill="black"/>
<path d="M144.815 52.9888C144.815 52.9888 150.363 54.8049 145.795 64.152C141.227 73.499 134.342 76.3564 130.24 75.5694C126.144 74.7824 126.676 72.7302 126.676 72.7302C126.676 72.7302 125.514 72.6091 124.97 69.7457C124.425 66.8883 125.085 60.4229 131.722 54.7928C137.603 49.8045 143.235 49.7561 144.821 52.9888H144.815Z" fill="#8A4F0A"/>
<path opacity="0.3" d="M144.802 52.9037C143.853 56.869 141.124 60.3438 137.318 61.7483C136.217 62.1539 135.062 62.4263 133.948 62.8804C132.799 63.3465 131.734 64.079 130.869 64.9689C130.016 65.8346 129.32 66.894 128.782 67.9777C127.977 69.5759 127.269 71.2164 126.652 72.8933C127.59 71.3799 128.461 69.8362 129.405 68.3348C130.276 66.8819 131.438 65.5319 132.859 64.6299C134.795 63.3647 137.367 63.2012 139.351 61.9299C142.467 60.0532 144.645 56.4997 144.79 52.8977L144.802 52.9037Z" fill="black"/>
<g opacity="0.3">
<path d="M129.713 72.6936H129.707C129.356 72.4938 129.266 71.9489 129.477 71.4767C130.185 69.9268 131.311 68.2922 132.472 67.2872C132.805 67.0026 133.162 66.7302 133.555 66.7241C133.7 66.7241 133.84 66.7604 133.949 66.8573C134.312 67.16 134.209 67.7655 134.07 68.274C133.791 69.2851 133.392 70.2901 132.793 71.1256C132.194 71.961 131.377 72.6149 130.536 72.7723C130.252 72.8268 129.955 72.8208 129.713 72.6876V72.6936Z" fill="white"/>
</g>
<path opacity="0.3" d="M126.38 70.8715C125.109 66.5854 126.646 61.5849 129.955 58.6186C127.323 62.1964 126.004 66.4219 126.38 70.8715Z" fill="white"/>
<path opacity="0.3" d="M131.256 57.3231C131.486 56.536 132.018 56.0335 132.817 55.8519C132.587 56.639 132.055 57.1415 131.256 57.3231Z" fill="white"/>
<path opacity="0.3" d="M136.647 64.1703C139.987 63.2622 142.733 61.1674 144.494 58.1887C143.568 61.5488 140.126 64.1703 136.647 64.1703Z" fill="white"/>
<path d="M118.23 51.3547C118.164 51.4152 111.575 57.4327 103.861 51.3426C95.318 44.5987 100.848 37.5097 100.848 37.5097L118.23 51.3607V51.3547Z" fill="#8A4F0A"/>
<path opacity="0.3" d="M118.23 51.3547C118.164 51.4152 111.575 57.4327 103.861 51.3426C95.318 44.5987 100.848 37.5097 100.848 37.5097L118.23 51.3607V51.3547Z" fill="black"/>
<path d="M119.331 49.6713C119.331 49.6713 118.382 54.2479 110.547 51.439C102.712 48.6361 99.8317 43.4117 100.092 40.0821C100.352 36.7525 102.034 36.9946 102.034 36.9946C102.034 36.9946 102.034 36.0563 104.254 35.3722C106.475 34.6821 111.672 34.6337 116.736 39.4101C121.219 43.6417 121.764 48.1215 119.331 49.6713Z" fill="#8A4F0A"/>
<path opacity="0.3" d="M119.398 49.6529C116.161 49.2534 113.16 47.3888 111.708 44.489C111.29 43.6476 110.97 42.7516 110.51 41.9101C110.038 41.0384 109.36 40.2514 108.574 39.646C107.806 39.0406 106.904 38.5805 105.997 38.2536C104.653 37.7572 103.292 37.3395 101.901 36.9944C103.189 37.6059 104.49 38.1568 105.767 38.7803C107.001 39.3433 108.175 40.1485 109.016 41.2018C110.195 42.6305 110.552 44.6646 111.738 46.1296C113.505 48.4422 116.518 49.8587 119.398 49.6529Z" fill="black"/>
<g opacity="0.3">
<path d="M102.336 39.4042C102.457 39.1015 102.887 38.9804 103.28 39.1075C104.575 39.5313 105.973 40.2821 106.874 41.1176C107.134 41.3537 107.376 41.614 107.418 41.9288C107.437 42.0439 107.418 42.1589 107.352 42.2558C107.146 42.5706 106.656 42.5403 106.233 42.4737C105.404 42.3405 104.569 42.1165 103.855 41.7109C103.141 41.3113 102.548 40.718 102.348 40.0641C102.282 39.8401 102.258 39.61 102.342 39.4042H102.336Z" fill="white"/>
</g>
<path opacity="0.3" d="M103.486 36.589C106.753 35.1118 110.94 35.9049 113.535 38.3447C110.407 36.6435 107.007 35.9836 103.486 36.589Z" fill="white"/>
<path opacity="0.3" d="M114.685 39.2707C115.381 39.3191 115.834 39.7005 115.992 40.3847C115.296 40.3362 114.842 39.9548 114.685 39.2707Z" fill="white"/>
<path opacity="0.3" d="M109.724 44.1682C110.831 46.723 112.676 48.6543 115.169 49.8834C112.386 49.5383 109.942 46.9652 109.724 44.1682Z" fill="white"/>
<path d="M166.922 32.8479C166.922 32.9266 167.442 40.3188 159.498 42.2017C150.701 44.2844 148.941 37.0253 148.941 37.0253L166.922 32.854V32.8479Z" fill="#8A4F0A"/>
<path opacity="0.3" d="M166.922 32.8479C166.922 32.9266 167.442 40.3188 159.498 42.2017C150.701 44.2844 148.941 37.0253 148.941 37.0253L166.922 32.854V32.8479Z" fill="black"/>
<path d="M166.402 31.262C166.402 31.262 168.889 34.2404 163.02 37.8969C157.151 41.5474 152.269 40.7301 150.236 38.8413C148.203 36.9525 149.231 35.9839 149.231 35.9839C149.231 35.9839 148.62 35.5057 149.322 33.7017C150.024 31.8976 152.668 28.4893 158.391 27.66C163.462 26.9214 166.65 28.8828 166.402 31.262Z" fill="#8A4F0A"/>
<path opacity="0.3" d="M166.42 31.2073C164.49 33.1084 161.731 34.1013 159.087 33.5503C158.325 33.3929 157.575 33.1326 156.788 32.9994C155.978 32.8541 155.118 32.8904 154.32 33.0902C153.533 33.2779 152.765 33.629 152.087 34.0468C151.071 34.6643 150.097 35.3363 149.159 36.0628C150.224 35.5422 151.252 34.9791 152.317 34.4645C153.322 33.956 154.447 33.6048 155.566 33.5988C157.103 33.5685 158.609 34.3858 160.176 34.3676C162.59 34.41 165.071 33.175 166.42 31.1952V31.2073Z" fill="black"/>
<g opacity="0.3">
<path d="M150.956 37.031C150.829 36.7949 150.968 36.4498 151.252 36.2621C152.196 35.6385 153.406 35.1179 154.41 34.9604C154.701 34.9181 154.991 34.8938 155.215 35.027C155.3 35.0755 155.36 35.1481 155.39 35.2389C155.487 35.5356 155.215 35.8383 154.955 36.0805C154.441 36.5527 153.866 36.9765 153.23 37.2368C152.595 37.4972 151.912 37.5759 151.379 37.37C151.198 37.2974 151.034 37.1945 150.943 37.031H150.956Z" fill="white"/>
</g>
<path opacity="0.3" d="M149.716 34.8282C150.369 31.9101 153.098 29.5428 156.044 29.1856C153.346 30.4207 151.21 32.243 149.716 34.8282Z" fill="white"/>
<path opacity="0.3" d="M157.236 28.9192C157.611 28.4228 158.101 28.3259 158.633 28.6407C158.258 29.1372 157.768 29.234 157.236 28.9192Z" fill="white"/>
<path opacity="0.3" d="M157.859 34.6759C160.122 35.2026 162.257 35.0028 164.387 34.0765C162.772 35.7717 159.759 36.0502 157.859 34.6759Z" fill="white"/>
</svg>
